<svg xmlns="http://www.w3.org/2000/svg" width="64.201" height="64" viewBox="0 0 64.201 64">
  <g id="Group_8965" data-name="Group 8965" transform="translate(-99.899 -2584)">
    <rect id="Rectangle_2539" data-name="Rectangle 2539" width="64" height="64" transform="translate(100 2584)" fill="none"/>
    <g id="Group_7200" data-name="Group 7200" transform="translate(-22.985 2240.471)">
      <path id="Path_15194" data-name="Path 15194" d="M164.414,393.848h5.123l-.649-3.382h-4.475Z" transform="translate(-8.134 -7.924)" fill="none" stroke="#0094e7" stroke-linejoin="round" stroke-width="2"/>
      <path id="Path_15195" data-name="Path 15195" d="M145.062,406.6a3.783,3.783,0,1,1-3.765-3.8A3.783,3.783,0,0,1,145.062,406.6Z" transform="translate(-2.732 -10.4)" fill="none" stroke="#0094e7" stroke-linejoin="round" stroke-width="2"/>
      <path id="Path_15196" data-name="Path 15196" d="M174,406.74a3.783,3.783,0,1,1-3.765-3.8A3.782,3.782,0,0,1,174,406.74Z" transform="translate(-8.54 -10.428)" fill="none" stroke="#0094e7" stroke-linejoin="round" stroke-width="2"/>
      <line id="Line_1030" data-name="Line 1030" x2="1.127" y2="0.005" transform="translate(156.51 388.567)" fill="none" stroke="#0094e7" stroke-linecap="round" stroke-linejoin="round" stroke-width="2"/>
      <line id="Line_1031" data-name="Line 1031" x1="1.171" y1="0.006" transform="translate(168.089 389.94)" fill="none" stroke="#0094e7" stroke-linecap="round" stroke-linejoin="round" stroke-width="2"/>
      <path id="Path_15197" data-name="Path 15197" d="M131.855,402.58l-.011,3.457a.5.5,0,0,0,.5.5h4.027" transform="translate(-1.597 -10.356)" fill="none" stroke="#0094e7" stroke-linejoin="round" stroke-width="2"/>
      <path id="Path_15198" data-name="Path 15198" d="M173.017,403.4h3.051a.72.72,0,0,0,.718-.718v-7.153a.942.942,0,0,0-.7-.877l-3.773-.806c-.336-1.371-1.248-5.095-1.488-6.087a1.02,1.02,0,0,0-1.191-.837l-8.3,0" transform="translate(-7.517 -7.212)" fill="none" stroke="#0094e7" stroke-linecap="round" stroke-linejoin="round" stroke-width="2"/>
      <line id="Line_1032" data-name="Line 1032" x1="15.573" transform="translate(142.331 396.183)" fill="none" stroke="#0094e7" stroke-linejoin="round" stroke-width="2"/>
      <path id="Path_15199" data-name="Path 15199" d="M135.149,398.165h-4.89V380.582h24.649v17.583h-10.7" transform="translate(-1.279 -5.941)" fill="none" stroke="#0094e7" stroke-linejoin="round" stroke-width="2"/>
      <path id="Path_15200" data-name="Path 15200" d="M168.805,350.982l-7.472,5.313v-2.339h-6.707v7.107l-7.74,5.536,3.06,4.45,18.858-13.41,18.858,13.41,3.039-4.5Z" transform="translate(-4.617)" fill="none" stroke="#0094e7" stroke-linejoin="round" stroke-width="2"/>
      <rect id="Rectangle_2230" data-name="Rectangle 2230" width="8.301" height="8.303" transform="translate(165.243 368.97)" fill="none" stroke="#0094e7" stroke-linejoin="round" stroke-width="2"/>
      <line id="Line_1033" data-name="Line 1033" x2="10.043" transform="translate(171.08 386.41)" fill="none" stroke="#0094e7" stroke-width="2"/>
      <line id="Line_1034" data-name="Line 1034" y1="17.833" transform="translate(179.571 368.577)" fill="none" stroke="#0094e7" stroke-linejoin="round" stroke-width="2"/>
      <line id="Line_1035" data-name="Line 1035" y2="3.007" transform="translate(148.806 368.577)" fill="none" stroke="#0094e7" stroke-linejoin="round" stroke-width="2"/>
      <line id="Line_1036" data-name="Line 1036" x1="3.481" transform="translate(125.207 390.446)" fill="none" stroke="#0094e7" stroke-linecap="round" stroke-linejoin="round" stroke-width="2"/>
      <line id="Line_1037" data-name="Line 1037" x1="4.489" transform="translate(123.885 386.675)" fill="none" stroke="#0094e7" stroke-linecap="round" stroke-linejoin="round" stroke-width="2"/>
      <line id="Line_1038" data-name="Line 1038" x1="1.101" transform="translate(127.273 383.855)" fill="none" stroke="#0094e7" stroke-linecap="round" stroke-linejoin="round" stroke-width="2"/>
    </g>
  </g>
</svg>
