<svg xmlns="http://www.w3.org/2000/svg" width="64" height="64" viewBox="0 0 64 64">
  <g id="Group_8966" data-name="Group 8966" transform="translate(-1600 -2272)">
    <rect id="Rectangle_2514" data-name="Rectangle 2514" width="64" height="64" transform="translate(1600 2272)" fill="none"/>
    <g id="Group_2445" data-name="Group 2445" transform="translate(1364.402 2144.742)">
      <path id="Path_3318" data-name="Path 3318" d="M269.941,135.486l-10.959,6.263L238.8,161.929l21.1,21.1,20.182-20.182,6.262-10.959Z" fill="none" stroke="#0094e7" stroke-linejoin="round" stroke-width="2"/>
      <line id="Line_278" data-name="Line 278" x1="12.917" y2="12.916" transform="translate(250.028 150.555)" fill="none" stroke="#0094e7" stroke-linejoin="round" stroke-width="2"/>
      <line id="Line_279" data-name="Line 279" x1="12.916" y2="12.916" transform="translate(257.954 158.481)" fill="none" stroke="#0094e7" stroke-linejoin="round" stroke-width="2"/>
      <path id="Path_3319" data-name="Path 3319" d="M282.8,151.572a2.815,2.815,0,1,1,0-3.98A2.814,2.814,0,0,1,282.8,151.572Z" transform="translate(-6.652 -1.914)" fill="none" stroke="#0094e7" stroke-linejoin="round" stroke-width="2"/>
      <path id="Path_3320" data-name="Path 3320" d="M282.959,141.457a13.777,13.777,0,0,1,9.235-3.161c6.314,0,11.43,3.446,11.43,7.7s-5.116,7.7-11.429,7.7c-5.005,0-9.26-2.166-10.806-5.184" transform="translate(-7.227 -0.477)" fill="none" stroke="#0094e7" stroke-linecap="round" stroke-linejoin="round" stroke-width="2"/>
    </g>
  </g>
</svg>
