<svg xmlns="http://www.w3.org/2000/svg" width="30" height="30" viewBox="0 0 30 30">
  <g id="f-email" transform="translate(0 -1)">
    <path id="Path_1700" data-name="Path 1700" d="M0,1H30V31H0Z" fill="none" fill-rule="evenodd"/>
    <path id="Path_1701" data-name="Path 1701" d="M15.976,14.335a.88.88,0,0,0,.063.066l9.22,6.639a.7.7,0,0,0,.311.12A3.533,3.533,0,0,1,22.468,23H5.533a3.53,3.53,0,0,1-3.1-1.842.7.7,0,0,0,.311-.118l9.216-6.635,1.56.879a.726.726,0,0,0,.7.006ZM26,8.893V19.537c0,.1-.023.192-.03.288L17.325,13.6,26,8.891Zm-24-.1,8.612,4.856L2.03,19.826c-.009-.1-.03-.191-.03-.289ZM22.468,5a3.519,3.519,0,0,1,3.345,2.4l-11.934,6.48L2.218,7.307A3.522,3.522,0,0,1,5.533,5Z" transform="translate(1 2)" fill="#fff" fill-rule="evenodd"/>
  </g>
</svg>
