<svg xmlns="http://www.w3.org/2000/svg" width="64" height="64" viewBox="0 0 64 64">
  <g id="Group_7468" data-name="Group 7468" transform="translate(-902 -2272)">
    <rect id="Rectangle_2492" data-name="Rectangle 2492" width="64" height="64" transform="translate(902 2272)" fill="none"/>
    <g id="Group_2429" data-name="Group 2429" transform="translate(771.774 2031.496)">
      <path id="Path_3241" data-name="Path 3241" d="M153.116,297.2c.737,2.847,4.348,3.4,6.058,2.72l1.047-4.565a6.27,6.27,0,0,0,3.875.53l.648-6.512" transform="translate(-0.647 -1.323)" fill="none" stroke="#0094e7" stroke-linejoin="round" stroke-width="2"/>
      <path id="Path_3242" data-name="Path 3242" d="M131.661,300.22l13.858-.012a8.094,8.094,0,0,0,6.107-2.665l8.156-8.693,10.652-9.071c1.536-1.4,1.589-3.682-.014-5.526-1.809-2.085-3.776-2.171-5.226-1.057l-10.678,8.9.2-9.118s5.785-3.162,6.7-3.654" transform="translate(0 -0.718)" fill="none" stroke="#0094e7" stroke-linejoin="round" stroke-width="2"/>
      <path id="Path_3243" data-name="Path 3243" d="M163.89,259.581l-16.137,7.34-11.49,15.425-4.575,1.686" transform="translate(-0.001 -0.424)" fill="none" stroke="#0094e7" stroke-linejoin="round" stroke-width="2"/>
      <path id="Path_3244" data-name="Path 3244" d="M188.781,255.95l1.237-4.728-21.852-5.715-8.371,32.01" transform="translate(-0.848)" fill="none" stroke="#0094e7" stroke-linejoin="round" stroke-width="2"/>
      <path id="Path_3245" data-name="Path 3245" d="M163.542,274.773l8.99-24.24,21.177,7.852-13.216,35.638L162.087,287.1" transform="translate(-0.918 -0.152)" fill="none" stroke="#0094e7" stroke-linejoin="round" stroke-width="2"/>
      <path id="Path_3246" data-name="Path 3246" d="M170.495,273.152a6.272,6.272,0,1,1,2.241,4.427" transform="translate(-1.171 -0.632)" fill="none" stroke="#0094e7" stroke-linejoin="round" stroke-width="2"/>
      <path id="Path_3247" data-name="Path 3247" d="M178.484,252.71a6.074,6.074,0,0,1-7.805,3.584" transform="translate(-1.177 -0.217)" fill="none" stroke="#0094e7" stroke-linejoin="round" stroke-width="2"/>
      <path id="Path_3248" data-name="Path 3248" d="M188.971,256.513a6.078,6.078,0,0,0,3.585,7.808" transform="translate(-1.717 -0.332)" fill="none" stroke="#0094e7" stroke-linejoin="round" stroke-width="2"/>
      <path id="Path_3249" data-name="Path 3249" d="M175.2,293.034a6.077,6.077,0,0,1,7.808-3.584" transform="translate(-1.313 -1.314)" fill="none" stroke="#0094e7" stroke-linejoin="round" stroke-width="2"/>
    </g>
  </g>
</svg>
